<mxfile host="Electron" agent="Mozilla/5.0 (Windows NT 10.0; Win64; x64) AppleWebKit/537.36 (KHTML, like Gecko) draw.io/26.1.1 Chrome/132.0.6834.210 Electron/34.3.3 Safari/537.36" version="26.1.1">
  <diagram name="Page-1" id="r0apbYySWslGNYMZxoUh">
    <mxGraphModel dx="1302" dy="764" grid="1" gridSize="10" guides="1" tooltips="1" connect="1" arrows="1" fold="1" page="1" pageScale="1" pageWidth="850" pageHeight="1100" math="0" shadow="0">
      <root>
        <mxCell id="0" />
        <mxCell id="1" parent="0" />
        <mxCell id="HTFByCGMB9Lwanwu3jQo-49" value="" style="rounded=0;whiteSpace=wrap;html=1;fillColor=#647687;strokeColor=#314354;fontColor=#ffffff;" vertex="1" parent="1">
          <mxGeometry x="10" y="110" width="850" height="610" as="geometry" />
        </mxCell>
        <mxCell id="HTFByCGMB9Lwanwu3jQo-32" style="edgeStyle=orthogonalEdgeStyle;rounded=0;orthogonalLoop=1;jettySize=auto;html=1;" edge="1" parent="1" source="HTFByCGMB9Lwanwu3jQo-1" target="HTFByCGMB9Lwanwu3jQo-7">
          <mxGeometry relative="1" as="geometry">
            <Array as="points">
              <mxPoint x="110" y="370" />
              <mxPoint x="110" y="430" />
            </Array>
          </mxGeometry>
        </mxCell>
        <mxCell id="HTFByCGMB9Lwanwu3jQo-1" value="User/Admin&lt;div&gt;&lt;br&gt;&lt;/div&gt;" style="shape=umlActor;verticalLabelPosition=bottom;verticalAlign=top;html=1;outlineConnect=0;fillColor=#e3c800;fontColor=#000000;strokeColor=#B09500;" vertex="1" parent="1">
          <mxGeometry x="40" y="340" width="30" height="60" as="geometry" />
        </mxCell>
        <mxCell id="HTFByCGMB9Lwanwu3jQo-42" style="edgeStyle=orthogonalEdgeStyle;rounded=0;orthogonalLoop=1;jettySize=auto;html=1;" edge="1" parent="1" source="HTFByCGMB9Lwanwu3jQo-5" target="HTFByCGMB9Lwanwu3jQo-41">
          <mxGeometry relative="1" as="geometry" />
        </mxCell>
        <mxCell id="HTFByCGMB9Lwanwu3jQo-5" value="Authentication" style="rounded=1;whiteSpace=wrap;html=1;fillColor=#008a00;fontColor=#ffffff;strokeColor=#005700;" vertex="1" parent="1">
          <mxGeometry x="150" y="170" width="120" height="60" as="geometry" />
        </mxCell>
        <mxCell id="HTFByCGMB9Lwanwu3jQo-6" value="Product catalog" style="rounded=1;whiteSpace=wrap;html=1;fillColor=#a20025;fontColor=#ffffff;strokeColor=#6F0000;" vertex="1" parent="1">
          <mxGeometry x="150" y="280" width="120" height="60" as="geometry" />
        </mxCell>
        <mxCell id="HTFByCGMB9Lwanwu3jQo-10" style="edgeStyle=orthogonalEdgeStyle;rounded=0;orthogonalLoop=1;jettySize=auto;html=1;" edge="1" parent="1" source="HTFByCGMB9Lwanwu3jQo-7" target="HTFByCGMB9Lwanwu3jQo-9">
          <mxGeometry relative="1" as="geometry" />
        </mxCell>
        <mxCell id="HTFByCGMB9Lwanwu3jQo-24" style="edgeStyle=orthogonalEdgeStyle;rounded=0;orthogonalLoop=1;jettySize=auto;html=1;" edge="1" parent="1" source="HTFByCGMB9Lwanwu3jQo-7">
          <mxGeometry relative="1" as="geometry">
            <mxPoint x="210" y="690" as="targetPoint" />
          </mxGeometry>
        </mxCell>
        <mxCell id="HTFByCGMB9Lwanwu3jQo-7" value="Order" style="rounded=1;whiteSpace=wrap;html=1;fillColor=#a0522d;fontColor=#ffffff;strokeColor=#6D1F00;" vertex="1" parent="1">
          <mxGeometry x="150" y="400" width="120" height="60" as="geometry" />
        </mxCell>
        <mxCell id="HTFByCGMB9Lwanwu3jQo-14" style="edgeStyle=orthogonalEdgeStyle;rounded=0;orthogonalLoop=1;jettySize=auto;html=1;" edge="1" parent="1" source="HTFByCGMB9Lwanwu3jQo-8">
          <mxGeometry relative="1" as="geometry">
            <mxPoint x="420" y="460" as="targetPoint" />
          </mxGeometry>
        </mxCell>
        <mxCell id="HTFByCGMB9Lwanwu3jQo-37" style="edgeStyle=orthogonalEdgeStyle;rounded=0;orthogonalLoop=1;jettySize=auto;html=1;" edge="1" parent="1" target="HTFByCGMB9Lwanwu3jQo-8">
          <mxGeometry relative="1" as="geometry">
            <mxPoint x="110" y="590" as="sourcePoint" />
            <Array as="points">
              <mxPoint x="300" y="590" />
              <mxPoint x="300" y="590" />
            </Array>
          </mxGeometry>
        </mxCell>
        <mxCell id="HTFByCGMB9Lwanwu3jQo-45" style="edgeStyle=orthogonalEdgeStyle;rounded=0;orthogonalLoop=1;jettySize=auto;html=1;" edge="1" parent="1" source="HTFByCGMB9Lwanwu3jQo-8" target="HTFByCGMB9Lwanwu3jQo-43">
          <mxGeometry relative="1" as="geometry" />
        </mxCell>
        <mxCell id="HTFByCGMB9Lwanwu3jQo-8" value="Analytics" style="rounded=1;whiteSpace=wrap;html=1;fillColor=#1ba1e2;fontColor=#ffffff;strokeColor=#006EAF;" vertex="1" parent="1">
          <mxGeometry x="360" y="565" width="120" height="60" as="geometry" />
        </mxCell>
        <mxCell id="HTFByCGMB9Lwanwu3jQo-22" style="edgeStyle=orthogonalEdgeStyle;rounded=0;orthogonalLoop=1;jettySize=auto;html=1;entryX=0.5;entryY=1;entryDx=0;entryDy=0;" edge="1" parent="1" source="HTFByCGMB9Lwanwu3jQo-9" target="HTFByCGMB9Lwanwu3jQo-21">
          <mxGeometry relative="1" as="geometry" />
        </mxCell>
        <mxCell id="HTFByCGMB9Lwanwu3jQo-9" value="" style="outlineConnect=0;dashed=0;verticalLabelPosition=bottom;verticalAlign=top;align=center;html=1;shape=mxgraph.aws3.queue;fillColor=#D9A741;gradientColor=none;" vertex="1" parent="1">
          <mxGeometry x="388" y="406" width="73.5" height="48" as="geometry" />
        </mxCell>
        <mxCell id="HTFByCGMB9Lwanwu3jQo-11" value="&lt;font style=&quot;font-size: 10px;&quot;&gt;order_placed (producer)&lt;/font&gt;" style="text;html=1;align=center;verticalAlign=middle;resizable=0;points=[];autosize=1;strokeColor=none;fillColor=none;" vertex="1" parent="1">
          <mxGeometry x="270" y="390" width="130" height="30" as="geometry" />
        </mxCell>
        <mxCell id="HTFByCGMB9Lwanwu3jQo-15" value="order_analytics (consumer)" style="text;html=1;align=center;verticalAlign=middle;resizable=0;points=[];autosize=1;strokeColor=none;fillColor=none;fontSize=10;" vertex="1" parent="1">
          <mxGeometry x="270" y="535" width="140" height="30" as="geometry" />
        </mxCell>
        <mxCell id="HTFByCGMB9Lwanwu3jQo-16" value="&lt;font style=&quot;font-size: 10px;&quot;&gt;order_analytics (producer)&lt;/font&gt;" style="text;html=1;align=center;verticalAlign=middle;resizable=0;points=[];autosize=1;strokeColor=none;fillColor=none;" vertex="1" parent="1">
          <mxGeometry x="260" y="450" width="140" height="30" as="geometry" />
        </mxCell>
        <mxCell id="HTFByCGMB9Lwanwu3jQo-17" style="edgeStyle=orthogonalEdgeStyle;rounded=0;orthogonalLoop=1;jettySize=auto;html=1;entryX=0.5;entryY=0;entryDx=0;entryDy=0;entryPerimeter=0;" edge="1" parent="1" source="HTFByCGMB9Lwanwu3jQo-6" target="HTFByCGMB9Lwanwu3jQo-9">
          <mxGeometry relative="1" as="geometry" />
        </mxCell>
        <mxCell id="HTFByCGMB9Lwanwu3jQo-18" value="&lt;font style=&quot;font-size: 10px;&quot;&gt;product_created (producer)&lt;/font&gt;" style="text;html=1;align=center;verticalAlign=middle;resizable=0;points=[];autosize=1;strokeColor=none;fillColor=none;" vertex="1" parent="1">
          <mxGeometry x="270" y="278" width="140" height="30" as="geometry" />
        </mxCell>
        <mxCell id="HTFByCGMB9Lwanwu3jQo-19" value="&lt;font style=&quot;font-size: 10px;&quot;&gt;product_deleted(producer)&lt;/font&gt;" style="text;html=1;align=center;verticalAlign=middle;resizable=0;points=[];autosize=1;strokeColor=none;fillColor=none;" vertex="1" parent="1">
          <mxGeometry x="270" y="318" width="140" height="30" as="geometry" />
        </mxCell>
        <mxCell id="HTFByCGMB9Lwanwu3jQo-44" style="edgeStyle=orthogonalEdgeStyle;rounded=0;orthogonalLoop=1;jettySize=auto;html=1;" edge="1" parent="1" source="HTFByCGMB9Lwanwu3jQo-21" target="HTFByCGMB9Lwanwu3jQo-43">
          <mxGeometry relative="1" as="geometry" />
        </mxCell>
        <mxCell id="HTFByCGMB9Lwanwu3jQo-21" value="Inventory" style="rounded=1;whiteSpace=wrap;html=1;fillColor=#6d8764;fontColor=#ffffff;strokeColor=#3A5431;" vertex="1" parent="1">
          <mxGeometry x="560" y="170" width="120" height="60" as="geometry" />
        </mxCell>
        <mxCell id="HTFByCGMB9Lwanwu3jQo-26" value="" style="endArrow=none;html=1;rounded=0;" edge="1" parent="1">
          <mxGeometry width="50" height="50" relative="1" as="geometry">
            <mxPoint x="210" y="690" as="sourcePoint" />
            <mxPoint x="680" y="690" as="targetPoint" />
          </mxGeometry>
        </mxCell>
        <mxCell id="HTFByCGMB9Lwanwu3jQo-23" style="edgeStyle=orthogonalEdgeStyle;rounded=0;orthogonalLoop=1;jettySize=auto;html=1;" edge="1" parent="1" target="HTFByCGMB9Lwanwu3jQo-21">
          <mxGeometry relative="1" as="geometry">
            <mxPoint x="680" y="690" as="sourcePoint" />
            <Array as="points">
              <mxPoint x="680" y="690" />
            </Array>
          </mxGeometry>
        </mxCell>
        <mxCell id="HTFByCGMB9Lwanwu3jQo-28" value="&lt;font style=&quot;font-size: 10px;&quot;&gt;axios get to check inventory for productId&lt;/font&gt;" style="text;html=1;align=center;verticalAlign=middle;resizable=0;points=[];autosize=1;strokeColor=none;fillColor=none;" vertex="1" parent="1">
          <mxGeometry x="256.5" y="660" width="210" height="30" as="geometry" />
        </mxCell>
        <mxCell id="HTFByCGMB9Lwanwu3jQo-29" value="&lt;font style=&quot;font-size: 10px;&quot;&gt;product_created, product_deleted (consumer)&lt;/font&gt;" style="text;html=1;align=center;verticalAlign=middle;resizable=0;points=[];autosize=1;strokeColor=none;fillColor=none;" vertex="1" parent="1">
          <mxGeometry x="505" y="250" width="230" height="30" as="geometry" />
        </mxCell>
        <mxCell id="HTFByCGMB9Lwanwu3jQo-30" style="edgeStyle=orthogonalEdgeStyle;rounded=0;orthogonalLoop=1;jettySize=auto;html=1;entryX=0.005;entryY=0.401;entryDx=0;entryDy=0;entryPerimeter=0;" edge="1" parent="1" source="HTFByCGMB9Lwanwu3jQo-1" target="HTFByCGMB9Lwanwu3jQo-5">
          <mxGeometry relative="1" as="geometry" />
        </mxCell>
        <mxCell id="HTFByCGMB9Lwanwu3jQo-31" style="edgeStyle=orthogonalEdgeStyle;rounded=0;orthogonalLoop=1;jettySize=auto;html=1;entryX=-0.009;entryY=0.407;entryDx=0;entryDy=0;entryPerimeter=0;" edge="1" parent="1" source="HTFByCGMB9Lwanwu3jQo-1" target="HTFByCGMB9Lwanwu3jQo-6">
          <mxGeometry relative="1" as="geometry" />
        </mxCell>
        <mxCell id="HTFByCGMB9Lwanwu3jQo-36" value="" style="endArrow=none;html=1;rounded=0;" edge="1" parent="1">
          <mxGeometry width="50" height="50" relative="1" as="geometry">
            <mxPoint x="110" y="430" as="sourcePoint" />
            <mxPoint x="110" y="590" as="targetPoint" />
          </mxGeometry>
        </mxCell>
        <mxCell id="HTFByCGMB9Lwanwu3jQo-38" value="" style="image;sketch=0;aspect=fixed;html=1;points=[];align=center;fontSize=12;image=img/lib/mscae/Cache_Redis_Product.svg;" vertex="1" parent="1">
          <mxGeometry x="500" y="618" width="50" height="42" as="geometry" />
        </mxCell>
        <mxCell id="HTFByCGMB9Lwanwu3jQo-39" style="edgeStyle=orthogonalEdgeStyle;rounded=0;orthogonalLoop=1;jettySize=auto;html=1;entryX=0.559;entryY=-0.018;entryDx=0;entryDy=0;entryPerimeter=0;" edge="1" parent="1" source="HTFByCGMB9Lwanwu3jQo-8" target="HTFByCGMB9Lwanwu3jQo-38">
          <mxGeometry relative="1" as="geometry" />
        </mxCell>
        <mxCell id="HTFByCGMB9Lwanwu3jQo-40" value="&lt;font style=&quot;font-size: 10px;&quot;&gt;validate cache&lt;/font&gt;" style="text;html=1;align=center;verticalAlign=middle;resizable=0;points=[];autosize=1;strokeColor=none;fillColor=none;" vertex="1" parent="1">
          <mxGeometry x="475" y="568" width="90" height="30" as="geometry" />
        </mxCell>
        <mxCell id="HTFByCGMB9Lwanwu3jQo-41" value="&lt;font style=&quot;font-size: 10px;&quot;&gt;JWT Auth (Role based access)&lt;/font&gt;" style="ellipse;whiteSpace=wrap;html=1;fillColor=#e3c800;fontColor=#000000;strokeColor=#B09500;" vertex="1" parent="1">
          <mxGeometry x="321.5" y="120" width="88.5" height="60" as="geometry" />
        </mxCell>
        <mxCell id="HTFByCGMB9Lwanwu3jQo-43" value="&lt;div&gt;&lt;br&gt;Mongodb&lt;/div&gt;" style="strokeWidth=2;html=1;shape=mxgraph.flowchart.database;whiteSpace=wrap;fillColor=#60a917;fontColor=#ffffff;strokeColor=#2D7600;" vertex="1" parent="1">
          <mxGeometry x="735" y="330" width="60" height="60" as="geometry" />
        </mxCell>
        <mxCell id="HTFByCGMB9Lwanwu3jQo-46" style="edgeStyle=orthogonalEdgeStyle;rounded=0;orthogonalLoop=1;jettySize=auto;html=1;entryX=0;entryY=0.5;entryDx=0;entryDy=0;entryPerimeter=0;" edge="1" parent="1" source="HTFByCGMB9Lwanwu3jQo-5" target="HTFByCGMB9Lwanwu3jQo-43">
          <mxGeometry relative="1" as="geometry" />
        </mxCell>
        <mxCell id="HTFByCGMB9Lwanwu3jQo-47" style="edgeStyle=orthogonalEdgeStyle;rounded=0;orthogonalLoop=1;jettySize=auto;html=1;entryX=0;entryY=0.5;entryDx=0;entryDy=0;entryPerimeter=0;" edge="1" parent="1" source="HTFByCGMB9Lwanwu3jQo-7" target="HTFByCGMB9Lwanwu3jQo-43">
          <mxGeometry relative="1" as="geometry" />
        </mxCell>
        <mxCell id="HTFByCGMB9Lwanwu3jQo-48" value="&lt;font style=&quot;font-size: 10px;&quot;&gt;Update DB to store Users, orders ,&lt;br&gt;inventory and analytics&lt;/font&gt;&lt;div&gt;&lt;br&gt;&lt;/div&gt;" style="text;html=1;align=center;verticalAlign=middle;resizable=0;points=[];autosize=1;strokeColor=none;fillColor=none;" vertex="1" parent="1">
          <mxGeometry x="675" y="390" width="180" height="60" as="geometry" />
        </mxCell>
        <mxCell id="HTFByCGMB9Lwanwu3jQo-51" value="Dockerize Eveything&lt;div&gt;&lt;br&gt;&lt;/div&gt;" style="text;html=1;align=center;verticalAlign=middle;resizable=0;points=[];autosize=1;strokeColor=none;fillColor=none;" vertex="1" parent="1">
          <mxGeometry x="40" y="110" width="130" height="40" as="geometry" />
        </mxCell>
        <mxCell id="HTFByCGMB9Lwanwu3jQo-52" value="" style="image;sketch=0;aspect=fixed;html=1;points=[];align=center;fontSize=12;image=img/lib/mscae/Docker.svg;" vertex="1" parent="1">
          <mxGeometry x="30" y="139" width="50" height="41" as="geometry" />
        </mxCell>
      </root>
    </mxGraphModel>
  </diagram>
</mxfile>
